{
    "asset" : {
        "generator" : "Khronos glTF Blender I/O v1.8.19",
        "version" : "2.0"
    },
    "scene" : 0,
    "scenes" : [
        {
            "name" : "Scene",
            "nodes" : [
                0
            ]
        }
    ],
    "nodes" : [
        {
            "mesh" : 0,
            "name" : "Text",
            "rotation" : [
                0.7024565935134888,
                0.0008636108250357211,
                0.0054304832592606544,
                0.7117053270339966
            ],
            "scale" : [
                1.5554496049880981,
                4.810595512390137,
                1.8847317695617676
            ],
            "translation" : [
                0,
                11.659120559692383,
                0
            ]
        }
    ],
    "materials" : [
        {
            "doubleSided" : true,
            "name" : "Material.001",
            "pbrMetallicRoughness" : {
                "baseColorFactor" : [
                    0.005605250597000122,
                    0.16513217985630035,
                    0.011612284928560257,
                    1
                ],
                "metallicFactor" : 0,
                "roughnessFactor" : 0.4000000059604645
            }
        }
    ],
    "meshes" : [
        {
            "name" : "Text",
            "primitives" : [
                {
                    "attributes" : {
                        "POSITION" : 0,
                        "NORMAL" : 1,
                        "TEXCOORD_0" : 2
                    },
                    "indices" : 3,
                    "material" : 0
                }
            ]
        }
    ],
    "accessors" : [
        {
            "bufferView" : 0,
            "componentType" : 5126,
            "count" : 18300,
            "max" : [
                15.598000526428223,
                0,
                6.008999824523926
            ],
            "min" : [
                0,
                0,
                -0.6910000443458557
            ],
            "type" : "VEC3"
        },
        {
            "bufferView" : 1,
            "componentType" : 5126,
            "count" : 18300,
            "type" : "VEC3"
        },
        {
            "bufferView" : 2,
            "componentType" : 5126,
            "count" : 18300,
            "type" : "VEC2"
        },
        {
            "bufferView" : 3,
            "componentType" : 5123,
            "count" : 40758,
            "type" : "SCALAR"
        }
    ],
    "bufferViews" : [
        {
            "buffer" : 0,
            "byteLength" : 219600,
            "byteOffset" : 0
        },
        {
            "buffer" : 0,
            "byteLength" : 219600,
            "byteOffset" : 219600
        },
        {
            "buffer" : 0,
            "byteLength" : 146400,
            "byteOffset" : 439200
        },
        {
            "buffer" : 0,
            "byteLength" : 81516,
            "byteOffset" : 585600
        }
    ],
    "buffers" : [
        {
            "byteLength" : 667116,
            "uri" : "Bell-text.bin"
        }
    ]
}
