{
    "asset" : {
        "generator" : "Khronos glTF Blender I/O v1.8.19",
        "version" : "2.0"
    },
    "scene" : 0,
    "scenes" : [
        {
            "name" : "Scene",
            "nodes" : [
                0,
                1,
                2,
                3,
                4,
                5
            ]
        }
    ],
    "nodes" : [
        {
            "mesh" : 0,
            "name" : "Sphere",
            "translation" : [
                0.0010174661874771118,
                1.594954252243042,
                0.03128327801823616
            ]
        },
        {
            "mesh" : 1,
            "name" : "Torus",
            "rotation" : [
                0.708713948726654,
                0,
                0,
                0.7054959535598755
            ],
            "scale" : [
                0.28299063444137573,
                0.28299063444137573,
                0.28299063444137573
            ],
            "translation" : [
                0.0010174661874771118,
                2.4949543476104736,
                0.03128327801823616
            ]
        },
        {
            "mesh" : 2,
            "name" : "Torus.001",
            "rotation" : [
                0.4993046522140503,
                0.5029616951942444,
                -0.5006778836250305,
                0.49703750014305115
            ],
            "scale" : [
                0.16838905215263367,
                0.16838906705379486,
                0.16838905215263367
            ],
            "translation" : [
                0.0010174661874771118,
                2.1949543952941895,
                0.03128327801823616
            ]
        },
        {
            "mesh" : 3,
            "name" : "Circle",
            "scale" : [
                -0.04323510825634003,
                -0.04323510825634003,
                -0.04323510825634003
            ],
            "translation" : [
                0.0010876506567001343,
                2.033304452896118,
                0.030013222247362137
            ]
        },
        {
            "mesh" : 4,
            "name" : "Sphere.001",
            "scale" : [
                0.20376521348953247,
                0.20376521348953247,
                0.20376521348953247
            ],
            "translation" : [
                0.006486639380455017,
                0.1623203307390213,
                0.03128303959965706
            ]
        },
        {
            "mesh" : 5,
            "name" : "Text",
            "rotation" : [
                0.6810375452041626,
                -0.0034126946702599525,
                0.008204678073525429,
                0.7321946024894714
            ],
            "scale" : [
                0.2905956506729126,
                0.2905956506729126,
                0.2905956506729126
            ],
            "translation" : [
                -0.9556334018707275,
                1.3950830698013306,
                1.0829319953918457
            ]
        }
    ],
    "materials" : [
        {
            "doubleSided" : true,
            "name" : "Material.002",
            "pbrMetallicRoughness" : {
                "baseColorFactor" : [
                    0.39300617575645447,
                    0.4787389636039734,
                    0.5102343559265137,
                    1
                ],
                "metallicFactor" : 0,
                "roughnessFactor" : 0.5
            }
        },
        {
            "doubleSided" : true,
            "name" : "Material.003",
            "pbrMetallicRoughness" : {
                "baseColorFactor" : [
                    0.4251052439212799,
                    0.4112849831581116,
                    0.45660147070884705,
                    1
                ],
                "metallicFactor" : 0,
                "roughnessFactor" : 0.34090909361839294
            }
        },
        {
            "doubleSided" : true,
            "name" : "Material.001",
            "pbrMetallicRoughness" : {
                "baseColorFactor" : [
                    0.4354398846626282,
                    0.4996929466724396,
                    0.5102343559265137,
                    1
                ],
                "metallicFactor" : 0,
                "roughnessFactor" : 0.5
            }
        },
        {
            "doubleSided" : true,
            "name" : "Material.005",
            "pbrMetallicRoughness" : {
                "baseColorFactor" : [
                    0.40640971064567566,
                    0.40640971064567566,
                    0.40640971064567566,
                    1
                ],
                "metallicFactor" : 0,
                "roughnessFactor" : 0.33636364340782166
            }
        },
        {
            "doubleSided" : true,
            "name" : "Material.004",
            "pbrMetallicRoughness" : {
                "baseColorFactor" : [
                    0.48298361897468567,
                    0.48298361897468567,
                    0.48298361897468567,
                    1
                ],
                "metallicFactor" : 0,
                "roughnessFactor" : 0.331818163394928
            }
        },
        {
            "doubleSided" : true,
            "name" : "Material.006",
            "pbrMetallicRoughness" : {
                "baseColorFactor" : [
                    0.8695183396339417,
                    0.7424947619438171,
                    0.17667776346206665,
                    1
                ],
                "metallicFactor" : 0,
                "roughnessFactor" : 0.5
            }
        }
    ],
    "meshes" : [
        {
            "name" : "Sphere",
            "primitives" : [
                {
                    "attributes" : {
                        "POSITION" : 0,
                        "NORMAL" : 1,
                        "TEXCOORD_0" : 2
                    },
                    "indices" : 3,
                    "material" : 0
                }
            ]
        },
        {
            "name" : "Torus",
            "primitives" : [
                {
                    "attributes" : {
                        "POSITION" : 4,
                        "NORMAL" : 5,
                        "TEXCOORD_0" : 6
                    },
                    "indices" : 7,
                    "material" : 1
                }
            ]
        },
        {
            "name" : "Torus.001",
            "primitives" : [
                {
                    "attributes" : {
                        "POSITION" : 8,
                        "NORMAL" : 9,
                        "TEXCOORD_0" : 10
                    },
                    "indices" : 11,
                    "material" : 2
                }
            ]
        },
        {
            "name" : "Circle",
            "primitives" : [
                {
                    "attributes" : {
                        "POSITION" : 12,
                        "NORMAL" : 13,
                        "TEXCOORD_0" : 14
                    },
                    "indices" : 15,
                    "material" : 3
                }
            ]
        },
        {
            "name" : "Sphere.001",
            "primitives" : [
                {
                    "attributes" : {
                        "POSITION" : 16,
                        "NORMAL" : 17,
                        "TEXCOORD_0" : 18
                    },
                    "indices" : 19,
                    "material" : 4
                }
            ]
        },
        {
            "name" : "Text.001",
            "primitives" : [
                {
                    "attributes" : {
                        "POSITION" : 20,
                        "NORMAL" : 21,
                        "TEXCOORD_0" : 22
                    },
                    "indices" : 23,
                    "material" : 5
                }
            ]
        }
    ],
    "accessors" : [
        {
            "bufferView" : 0,
            "componentType" : 5126,
            "count" : 329,
            "max" : [
                1.4694589376449585,
                1,
                1.4694586992263794
            ],
            "min" : [
                -1.4694585800170898,
                -1.604909896850586,
                -1.4694591760635376
            ],
            "type" : "VEC3"
        },
        {
            "bufferView" : 1,
            "componentType" : 5126,
            "count" : 329,
            "type" : "VEC3"
        },
        {
            "bufferView" : 2,
            "componentType" : 5126,
            "count" : 329,
            "type" : "VEC2"
        },
        {
            "bufferView" : 3,
            "componentType" : 5123,
            "count" : 1632,
            "type" : "SCALAR"
        },
        {
            "bufferView" : 4,
            "componentType" : 5126,
            "count" : 2304,
            "max" : [
                1.25,
                0.25,
                1.25
            ],
            "min" : [
                -1.25,
                -0.25,
                -1.25
            ],
            "type" : "VEC3"
        },
        {
            "bufferView" : 5,
            "componentType" : 5126,
            "count" : 2304,
            "type" : "VEC3"
        },
        {
            "bufferView" : 6,
            "componentType" : 5126,
            "count" : 2304,
            "type" : "VEC2"
        },
        {
            "bufferView" : 7,
            "componentType" : 5123,
            "count" : 3456,
            "type" : "SCALAR"
        },
        {
            "bufferView" : 8,
            "componentType" : 5126,
            "count" : 637,
            "max" : [
                1.25,
                0.25,
                1.25
            ],
            "min" : [
                -1.25,
                -0.25,
                -1.25
            ],
            "type" : "VEC3"
        },
        {
            "bufferView" : 9,
            "componentType" : 5126,
            "count" : 637,
            "type" : "VEC3"
        },
        {
            "bufferView" : 10,
            "componentType" : 5126,
            "count" : 637,
            "type" : "VEC2"
        },
        {
            "bufferView" : 11,
            "componentType" : 5123,
            "count" : 3456,
            "type" : "SCALAR"
        },
        {
            "bufferView" : 12,
            "componentType" : 5126,
            "count" : 64,
            "max" : [
                2.0504748821258545,
                40.29279708862305,
                2.004333972930908
            ],
            "min" : [
                -1.9663832187652588,
                0.14709772169589996,
                -2.012524127960205
            ],
            "type" : "VEC3"
        },
        {
            "bufferView" : 13,
            "componentType" : 5126,
            "count" : 64,
            "type" : "VEC3"
        },
        {
            "bufferView" : 14,
            "componentType" : 5126,
            "count" : 64,
            "type" : "VEC2"
        },
        {
            "bufferView" : 15,
            "componentType" : 5123,
            "count" : 192,
            "type" : "SCALAR"
        },
        {
            "bufferView" : 16,
            "componentType" : 5126,
            "count" : 559,
            "max" : [
                0.9999997019767761,
                1,
                0.9999994039535522
            ],
            "min" : [
                -0.9999990463256836,
                -1,
                -0.9999987483024597
            ],
            "type" : "VEC3"
        },
        {
            "bufferView" : 17,
            "componentType" : 5126,
            "count" : 559,
            "type" : "VEC3"
        },
        {
            "bufferView" : 18,
            "componentType" : 5126,
            "count" : 559,
            "type" : "VEC2"
        },
        {
            "bufferView" : 19,
            "componentType" : 5123,
            "count" : 2880,
            "type" : "SCALAR"
        },
        {
            "bufferView" : 20,
            "componentType" : 5126,
            "count" : 1378,
            "max" : [
                5.978000640869141,
                0,
                0.23000000417232513
            ],
            "min" : [
                0.04000000283122063,
                0,
                -0.6910000443458557
            ],
            "type" : "VEC3"
        },
        {
            "bufferView" : 21,
            "componentType" : 5126,
            "count" : 1378,
            "type" : "VEC3"
        },
        {
            "bufferView" : 22,
            "componentType" : 5126,
            "count" : 1378,
            "type" : "VEC2"
        },
        {
            "bufferView" : 23,
            "componentType" : 5123,
            "count" : 3081,
            "type" : "SCALAR"
        }
    ],
    "bufferViews" : [
        {
            "buffer" : 0,
            "byteLength" : 3948,
            "byteOffset" : 0
        },
        {
            "buffer" : 0,
            "byteLength" : 3948,
            "byteOffset" : 3948
        },
        {
            "buffer" : 0,
            "byteLength" : 2632,
            "byteOffset" : 7896
        },
        {
            "buffer" : 0,
            "byteLength" : 3264,
            "byteOffset" : 10528
        },
        {
            "buffer" : 0,
            "byteLength" : 27648,
            "byteOffset" : 13792
        },
        {
            "buffer" : 0,
            "byteLength" : 27648,
            "byteOffset" : 41440
        },
        {
            "buffer" : 0,
            "byteLength" : 18432,
            "byteOffset" : 69088
        },
        {
            "buffer" : 0,
            "byteLength" : 6912,
            "byteOffset" : 87520
        },
        {
            "buffer" : 0,
            "byteLength" : 7644,
            "byteOffset" : 94432
        },
        {
            "buffer" : 0,
            "byteLength" : 7644,
            "byteOffset" : 102076
        },
        {
            "buffer" : 0,
            "byteLength" : 5096,
            "byteOffset" : 109720
        },
        {
            "buffer" : 0,
            "byteLength" : 6912,
            "byteOffset" : 114816
        },
        {
            "buffer" : 0,
            "byteLength" : 768,
            "byteOffset" : 121728
        },
        {
            "buffer" : 0,
            "byteLength" : 768,
            "byteOffset" : 122496
        },
        {
            "buffer" : 0,
            "byteLength" : 512,
            "byteOffset" : 123264
        },
        {
            "buffer" : 0,
            "byteLength" : 384,
            "byteOffset" : 123776
        },
        {
            "buffer" : 0,
            "byteLength" : 6708,
            "byteOffset" : 124160
        },
        {
            "buffer" : 0,
            "byteLength" : 6708,
            "byteOffset" : 130868
        },
        {
            "buffer" : 0,
            "byteLength" : 4472,
            "byteOffset" : 137576
        },
        {
            "buffer" : 0,
            "byteLength" : 5760,
            "byteOffset" : 142048
        },
        {
            "buffer" : 0,
            "byteLength" : 16536,
            "byteOffset" : 147808
        },
        {
            "buffer" : 0,
            "byteLength" : 16536,
            "byteOffset" : 164344
        },
        {
            "buffer" : 0,
            "byteLength" : 11024,
            "byteOffset" : 180880
        },
        {
            "buffer" : 0,
            "byteLength" : 6162,
            "byteOffset" : 191904
        }
    ],
    "buffers" : [
        {
            "byteLength" : 198068,
            "uri" : "Bell.bin"
        }
    ]
}
